<svg width="26" height="27" viewBox="0 0 26 27" fill="none" xmlns="http://www.w3.org/2000/svg">
<g id="logos:facebook" clip-path="url(#clip0_534_123)">
<path id="Vector" d="M25.287 13.3437C25.287 6.36092 19.6263 0.700195 12.6435 0.700195C5.66073 0.700195 0 6.36083 0 13.3437C0 19.6544 4.62357 24.8851 10.6679 25.8336V16.9984H7.45769V13.3437H10.6679V10.5582C10.6679 7.38939 12.5556 5.63906 15.4435 5.63906C16.8269 5.63906 18.2738 5.886 18.2738 5.886V8.99749H16.6795C15.1088 8.99749 14.619 9.97212 14.619 10.972V13.3437H18.1256L17.5651 16.9984H14.619V25.8336C20.6634 24.8851 25.287 19.6545 25.287 13.3437Z" fill="#1877F2"/>
<path id="Vector_2" d="M17.5683 16.9981L18.1289 13.3433H14.6223V10.9717C14.6223 9.97164 15.1121 8.9971 16.6828 8.9971H18.2771V5.88562C18.2771 5.88562 16.8302 5.63867 15.4468 5.63867C12.5588 5.63867 10.6712 7.38901 10.6712 10.5578V13.3433H7.46094V16.9981H10.6712V25.8332C11.3247 25.9356 11.9852 25.987 12.6467 25.9868C13.3083 25.987 13.9688 25.9356 14.6223 25.8332V16.9981H17.5683Z" fill="#A7A7A7"/>
</g>
<defs>
<clipPath id="clip0_534_123">
<rect width="25.6" height="25.6" fill="white" transform="translate(0 0.700195)"/>
</clipPath>
</defs>
</svg>
