<svg width="26" height="27" viewBox="0 0 26 27" fill="none" xmlns="http://www.w3.org/2000/svg">
<g id="logos:instagram-icon" clip-path="url(#clip0_534_130)">
<path id="Vector" d="M12.6435 2.97839C16.0194 2.97839 16.4193 2.99124 17.7525 3.05198C18.9852 3.10829 19.6547 3.31424 20.1003 3.48739C20.6904 3.71676 21.1116 3.99076 21.554 4.43319C21.9965 4.87561 22.2704 5.2968 22.4998 5.88689C22.6729 6.33248 22.8789 7.00199 22.9352 8.23463C22.9959 9.56793 23.0088 9.96778 23.0088 13.3437C23.0088 16.7197 22.9959 17.1196 22.9352 18.4528C22.8789 19.6855 22.6729 20.3549 22.4998 20.8005C22.2704 21.3906 21.9964 21.8119 21.554 22.2543C21.1116 22.6967 20.6904 22.9707 20.1003 23.2C19.6547 23.3731 18.9852 23.5792 17.7525 23.6354C16.4195 23.6962 16.0196 23.7091 12.6435 23.7091C9.26729 23.7091 8.86744 23.6962 7.53444 23.6354C6.3017 23.5791 5.63228 23.3731 5.1867 23.2C4.5966 22.9707 4.17532 22.6967 3.73289 22.2543C3.29047 21.8118 3.01646 21.3906 2.7872 20.8005C2.61404 20.355 2.40799 19.6855 2.35179 18.4528C2.29094 17.1196 2.2781 16.7197 2.2781 13.3437C2.2781 9.96778 2.29094 9.56793 2.35179 8.23473C2.40809 7.00199 2.61404 6.33248 2.7872 5.88689C3.01646 5.2968 3.29047 4.87561 3.73289 4.43319C4.17542 3.99066 4.5966 3.71676 5.1867 3.48739C5.63218 3.31424 6.3017 3.10829 7.53444 3.05198C8.86763 2.99124 9.26748 2.97839 12.6435 2.97839ZM12.6435 0.700195C9.2097 0.700195 8.77913 0.714716 7.43062 0.776254C6.08478 0.837693 5.16566 1.05145 4.36151 1.36398C3.53 1.68708 2.82493 2.11943 2.12203 2.82233C1.41913 3.52523 0.986884 4.2303 0.663783 5.06171C0.351153 5.86595 0.137498 6.78507 0.0760585 8.13082C0.0145203 9.47933 0 9.90989 0 13.3437C0 16.7775 0.0145203 17.2081 0.0760585 18.5566C0.137498 19.9024 0.351153 20.8215 0.663783 21.6257C0.986785 22.4571 1.41913 23.1623 2.12203 23.8652C2.82493 24.5681 3.53 25.0003 4.36151 25.3234C5.16576 25.636 6.08478 25.8497 7.43052 25.9111C8.77913 25.9727 9.2097 25.9872 12.6435 25.9872C16.0773 25.9872 16.5079 25.9727 17.8564 25.9111C19.2021 25.8497 20.1212 25.636 20.9254 25.3234C21.7569 25.0004 22.462 24.5681 23.1649 23.8652C23.8678 23.1623 24.3001 22.4572 24.6232 21.6257C24.9357 20.8214 25.1495 19.9024 25.2109 18.5567C25.2725 17.2081 25.287 16.7775 25.287 13.3437C25.287 9.90989 25.2725 9.47933 25.2109 8.13082C25.1495 6.78507 24.9357 5.86595 24.6232 5.06181C24.3001 4.2303 23.8678 3.52523 23.1649 2.82233C22.462 2.11943 21.7569 1.68698 20.9255 1.36398C20.1212 1.05145 19.2021 0.837693 17.8564 0.776254C16.5079 0.714716 16.0773 0.700195 12.6435 0.700195ZM12.6435 6.85106C9.05768 6.85106 6.15086 9.75807 6.15086 13.3437C6.15086 16.9295 9.05768 19.8363 12.6435 19.8363C16.2292 19.8363 19.1361 16.9295 19.1361 13.3437C19.1361 9.75798 16.2292 6.85106 12.6435 6.85106ZM12.6435 17.5582C10.3159 17.5582 8.42896 15.6713 8.42896 13.3437C8.42896 11.0161 10.3159 9.12916 12.6435 9.12916C14.9711 9.12916 16.858 11.0161 16.858 13.3437C16.858 15.6713 14.9711 17.5582 12.6435 17.5582ZM20.9098 6.59453C20.9098 7.43256 20.2306 8.11175 19.3926 8.11175C18.5546 8.11175 17.8753 7.43256 17.8753 6.59453C17.8753 5.75661 18.5546 5.07731 19.3926 5.07731C20.2306 5.07731 20.9098 5.75661 20.9098 6.59453Z" fill="#F30D37"/>
</g>
<defs>
<clipPath id="clip0_534_130">
<rect width="25.6" height="25.6" fill="white" transform="translate(0 0.700195)"/>
</clipPath>
</defs>
</svg>
