<svg width="26" height="27" viewBox="0 0 26 27" fill="none" xmlns="http://www.w3.org/2000/svg">
<g id="logos:linkedin-icon" clip-path="url(#clip0_534_109)">
<g id="Vector">
<path d="M21.5457 22.2463H17.799V16.3786C17.799 14.9794 17.774 13.1782 15.8503 13.1782C13.8989 13.1782 13.6003 14.7027 13.6003 16.2767V22.2459H9.85363V10.1796H13.4504V11.8286H13.5008C13.8607 11.2131 14.3809 10.7068 15.0058 10.3636C15.6308 10.0203 16.3371 9.853 17.0497 9.87944C20.8471 9.87944 21.5473 12.3773 21.5473 15.6269L21.5457 22.2463ZM5.62596 8.53033C4.42512 8.53053 3.45148 7.55718 3.45128 6.35635C3.45108 5.15551 4.42433 4.18186 5.62517 4.18166C6.82601 4.18137 7.79965 5.15472 7.79985 6.35555C7.79996 6.93222 7.57098 7.48531 7.1633 7.89316C6.75562 8.301 6.20263 8.5302 5.62596 8.53033ZM7.49937 22.2464H3.7487V10.1796H7.49927L7.49937 22.2464ZM23.4136 0.702036H1.866C0.847608 0.690578 0.0124459 1.50638 0 2.52477V24.1622C0.0120508 25.1811 0.847114 25.9977 1.8659 25.987H23.4136C24.4345 25.9997 25.2729 25.1831 25.287 24.1622V2.52309C25.2725 1.50272 24.434 0.687022 23.4136 0.700357" fill="#0A66C2"/>
<path d="M7.49937 22.2464H3.7487V10.1796H7.49927L7.49937 22.2464Z" fill="white"/>
<path d="M5.62596 8.53033C4.42512 8.53053 3.45148 7.55718 3.45128 6.35635C3.45108 5.15551 4.42433 4.18186 5.62517 4.18166C6.82601 4.18137 7.79965 5.15472 7.79985 6.35555C7.79996 6.93222 7.57098 7.48531 7.1633 7.89316C6.75562 8.301 6.20263 8.5302 5.62596 8.53033Z" fill="white"/>
<path d="M21.5457 22.2463H17.799V16.3786C17.799 14.9794 17.774 13.1782 15.8503 13.1782C13.8989 13.1782 13.6003 14.7027 13.6003 16.2767V22.2459H9.85363V10.1796H13.4504V11.8286H13.5008C13.8607 11.2131 14.3809 10.7068 15.0058 10.3636C15.6308 10.0203 16.3371 9.853 17.0497 9.87944C20.8471 9.87944 21.5473 12.3773 21.5473 15.6269L21.5457 22.2463Z" fill="white"/>
</g>
</g>
<defs>
<clipPath id="clip0_534_109">
<rect width="25.6" height="25.6" fill="white" transform="translate(0 0.700195)"/>
</clipPath>
</defs>
</svg>
