<svg width="26" height="29" viewBox="0 0 26 29" fill="none" xmlns="http://www.w3.org/2000/svg">
<g id="logos:tiktok-icon" clip-path="url(#clip0_534_115)">
<path id="Vector" d="M18.7423 10.4146C20.5873 11.7328 22.8475 12.5084 25.2886 12.5084V7.81353C24.8266 7.81363 24.3658 7.76543 23.9138 7.66971V11.3653C21.4729 11.3653 19.213 10.5898 17.3677 9.27168V18.8527C17.3677 23.6457 13.4802 27.5308 8.68513 27.5308C6.89598 27.5308 5.23296 26.9902 3.85156 26.0629C5.42825 27.6743 7.62703 28.6738 10.0595 28.6738C14.855 28.6738 18.7425 24.7887 18.7425 19.9955V10.4146H18.7423ZM20.4383 5.67807C19.4954 4.64851 18.8763 3.31798 18.7423 1.84699V1.24316H17.4396C17.7675 3.11272 18.8862 4.70995 20.4383 5.67807ZM6.88442 22.3851C6.35763 21.6948 6.07287 20.8502 6.07415 19.9818C6.07415 17.7897 7.85224 16.0123 10.046 16.0123C10.4547 16.0121 10.8611 16.0749 11.2508 16.1983V11.3985C10.7954 11.3361 10.3359 11.3096 9.87658 11.3193V15.0553C9.48673 14.9317 9.08016 14.869 8.6712 14.8694C6.47756 14.8694 4.69957 16.6466 4.69957 18.839C4.69957 20.3892 5.58826 21.7313 6.88442 22.3851Z" fill="#FF004F"/>
<path id="Vector_2" d="M17.3618 9.27159C19.2072 10.5897 21.4669 11.3652 23.9079 11.3652V7.66962C22.5454 7.37951 21.3392 6.66792 20.4323 5.67807C18.8801 4.70985 17.7616 3.11262 17.4337 1.24316H14.0117V19.9953C14.0039 22.1815 12.2289 23.9516 10.0399 23.9516C8.75005 23.9516 7.60404 23.3371 6.87832 22.385C5.58237 21.7313 4.69357 20.3891 4.69357 18.8391C4.69357 16.6469 6.47156 14.8695 8.66521 14.8695C9.0855 14.8695 9.49059 14.9349 9.87058 15.0554V11.3194C5.1597 11.4167 1.37109 15.2639 1.37109 19.9954C1.37109 22.3574 2.31452 24.4986 3.84576 26.0631C5.22716 26.9902 6.89008 27.531 8.67933 27.531C13.4745 27.531 17.3619 23.6456 17.3619 18.8527V9.27168L17.3618 9.27159Z" fill="#A7A7A7"/>
<path id="Vector_3" d="M23.9115 7.6694V6.67037C22.6828 6.67223 21.4784 6.32832 20.4359 5.67795C21.3587 6.68767 22.5738 7.38397 23.9115 7.6696V7.6694ZM17.4372 1.24295C17.4059 1.06432 17.3819 0.884499 17.3652 0.703923V0.100098H12.6403V18.8525C12.6328 21.0384 10.8578 22.8085 8.6687 22.8085C8.0481 22.8094 7.43599 22.6644 6.88181 22.385C7.60753 23.337 8.75354 23.9514 10.0434 23.9514C12.2323 23.9514 14.0075 22.1815 14.0152 19.9953V1.24305H17.4372V1.24295ZM9.87437 11.3192V10.2555C9.47955 10.2015 9.08151 10.1745 8.68302 10.1747C3.88738 10.1747 0 14.06 0 18.8525C0 21.8572 1.52779 24.5052 3.84945 26.0628C2.3182 24.4984 1.37478 22.3571 1.37478 19.9952C1.37478 15.2638 5.16329 11.4165 9.87437 11.3192Z" fill="#00F2EA"/>
</g>
<defs>
<clipPath id="clip0_534_115">
<rect width="25.6" height="28.8" fill="white" transform="translate(0 0.100098)"/>
</clipPath>
</defs>
</svg>
