<svg width="26" height="21" viewBox="0 0 26 21" fill="none" xmlns="http://www.w3.org/2000/svg">
<g id="logos:twitter" clip-path="url(#clip0_534_103)">
<path id="Vector" d="M25.287 2.61384C24.3401 3.03332 23.3357 3.30867 22.3073 3.43073C23.3785 2.78868 24.201 1.77196 24.5883 0.560556C23.57 1.16486 22.4558 1.59063 21.294 1.81947C20.3476 0.811253 18.9994 0.181152 17.5072 0.181152C14.6421 0.181152 12.3191 2.504 12.3191 5.36894C12.3191 5.7756 12.365 6.1715 12.4534 6.5513C8.14182 6.33488 4.31914 4.26954 1.76031 1.1308C1.31384 1.89701 1.058 2.78828 1.058 3.73891C1.058 5.53883 1.97397 7.12668 3.36594 8.05706C2.54208 8.03126 1.73636 7.80874 1.01602 7.40809C1.01573 7.42983 1.01573 7.45156 1.01573 7.47339C1.01573 9.98697 2.80399 12.0838 5.17722 12.5604C4.41326 12.7682 3.61192 12.7986 2.83441 12.6493C3.49454 14.7104 5.41053 16.2102 7.68063 16.2522C5.90511 17.6436 3.6681 18.473 1.23758 18.473C0.818765 18.473 0.405876 18.4484 0 18.4005C2.29588 19.8725 5.02283 20.7314 7.95256 20.7314C17.4951 20.7314 22.7132 12.8261 22.7132 5.97059C22.7132 5.74557 22.7083 5.52184 22.6982 5.2994C23.7139 4.56517 24.5905 3.65576 25.287 2.61384Z" fill="#55ACEE"/>
</g>
<defs>
<clipPath id="clip0_534_103">
<rect width="25.6" height="20.8" fill="white" transform="translate(0 0.100098)"/>
</clipPath>
</defs>
</svg>
