<svg width="26" height="19" viewBox="0 0 26 19" fill="none" xmlns="http://www.w3.org/2000/svg">
<g id="logos:youtube-icon" clip-path="url(#clip0_534_137)">
<path id="Vector" d="M24.7266 3.38352C24.5815 2.84751 24.2986 2.35885 23.906 1.9662C23.5133 1.57354 23.0247 1.29059 22.4887 1.14553C20.5264 0.610352 12.6287 0.610352 12.6287 0.610352C12.6287 0.610352 4.73068 0.626551 2.76837 1.16173C2.23236 1.3068 1.7437 1.58976 1.35106 1.98244C0.958423 2.37511 0.675502 2.86379 0.530476 3.39982C-0.0630773 6.88646 -0.293327 12.1993 0.546774 15.5465C0.691816 16.0825 0.974742 16.5711 1.36738 16.9638C1.76002 17.3564 2.24867 17.6394 2.78467 17.7845C4.74698 18.3196 12.6448 18.3196 12.6448 18.3196C12.6448 18.3196 20.5426 18.3196 22.5048 17.7845C23.0408 17.6394 23.5295 17.3565 23.9221 16.9638C24.3148 16.5712 24.5977 16.0825 24.7428 15.5465C25.3688 12.0549 25.5617 6.74531 24.7266 3.38352Z" fill="#FF0000"/>
<path id="Vector_2" d="M10.1152 13.2596L16.6669 9.46475L10.1152 5.66992V13.2596Z" fill="white"/>
</g>
<defs>
<clipPath id="clip0_534_137">
<rect width="25.287" height="17.7799" fill="white" transform="translate(0 0.609863)"/>
</clipPath>
</defs>
</svg>
